HIERARCHY
ROOT	Hips
{
	OFFSET	0.000	0.000	0.000
	CHANNELS	6	Xposition	Yposition	Zposition	Yrotation	Xrotation	Zrotation
	JOINT	LeftThigh
	{
		OFFSET	7.642	0.000	-0.000
		CHANNELS	3	Yrotation	Xrotation	Zrotation
		JOINT	LeftShin
		{
			OFFSET	0.000	-40.759	0.000
			CHANNELS	3	Yrotation	Xrotation	Zrotation
			JOINT	LeftFoot
			{
				OFFSET	0.000	-40.854	-0.059
				CHANNELS	3	Yrotation	Xrotation	Zrotation
				JOINT	LeftToe
				{
					OFFSET	0.000	-12.409	5.879
					CHANNELS	3	Yrotation	Xrotation	Zrotation
					End Site
					{
						OFFSET	0.000	-7.016	1.185
					}
				}
			}
		}
	}
	JOINT	RightThigh
	{
		OFFSET	-7.642	-0.000	-0.000
		CHANNELS	3	Yrotation	Xrotation	Zrotation
		JOINT	RightShin
		{
			OFFSET	-0.000	-40.759	-0.000
			CHANNELS	3	Yrotation	Xrotation	Zrotation
			JOINT	RightFoot
			{
				OFFSET	-0.000	-40.854	-0.059
				CHANNELS	3	Yrotation	Xrotation	Zrotation
				JOINT	RightToe
				{
					OFFSET	0.000	-12.409	5.879
					CHANNELS	3	Yrotation	Xrotation	Zrotation
					End Site
					{
						OFFSET	0.000	-7.016	1.185
					}
				}
			}
		}
	}
	JOINT	Spine1
	{
		OFFSET	0.000	8.005	-3.725
		CHANNELS	3	Yrotation	Xrotation	Zrotation
		JOINT	Spine2
		{
			OFFSET	0.000	-7.164	-0.000
			CHANNELS	3	Yrotation	Xrotation	Zrotation
			JOINT	Spine3
			{
				OFFSET	-0.000	-7.164	-0.000
				CHANNELS	3	Yrotation	Xrotation	Zrotation
				JOINT	Spine4
				{
					OFFSET	0.000	-12.097	-0.000
					CHANNELS	3	Yrotation	Xrotation	Zrotation
					JOINT	LeftShoulder
					{
						OFFSET	-6.642	-11.736	1.807
						CHANNELS	3	Yrotation	Xrotation	Zrotation
						JOINT	LeftArm
						{
							OFFSET	-0.000	-12.849	0.000
							CHANNELS	3	Yrotation	Xrotation	Zrotation
							JOINT	LeftForeArm
							{
								OFFSET	0.000	-24.625	0.000
								CHANNELS	3	Yrotation	Xrotation	Zrotation
								JOINT	LeftHand
								{
									OFFSET	-0.000	-27.116	0.000
									CHANNELS	3	Yrotation	Xrotation	Zrotation
									JOINT	LeftFinger1Metacarpal
									{
										OFFSET	2.664	-1.988	0.099
										CHANNELS	3	Yrotation	Xrotation	Zrotation
										JOINT	LeftFinger1Proximal
										{
											OFFSET	0.000	-3.769	0.000
											CHANNELS	3	Yrotation	Xrotation	Zrotation
											JOINT	LeftFinger1Distal
											{
												OFFSET	0.000	-2.861	0.000
												CHANNELS	3	Yrotation	Xrotation	Zrotation
												End Site
												{
													OFFSET	0.000	-3.269	-0.000
												}
											}
										}
									}
									JOINT	LeftFinger2Metacarpal
									{
										OFFSET	1.534	-2.531	0.099
										CHANNELS	3	Yrotation	Xrotation	Zrotation
										JOINT	LeftFinger2Proximal
										{
											OFFSET	-0.000	-5.243	-0.000
											CHANNELS	3	Yrotation	Xrotation	Zrotation
											JOINT	LeftFinger2Medial
											{
												OFFSET	-0.000	-4.425	0.000
												CHANNELS	3	Yrotation	Xrotation	Zrotation
												JOINT	LeftFinger2Distal
												{
													OFFSET	-0.000	-2.723	0.000
													CHANNELS	3	Yrotation	Xrotation	Zrotation
													End Site
													{
														OFFSET	-0.000	-2.668	-0.000
													}
												}
											}
										}
									}
									JOINT	LeftFinger3Metacarpal
									{
										OFFSET	0.521	-2.647	0.099
										CHANNELS	3	Yrotation	Xrotation	Zrotation
										JOINT	LeftFinger3Proximal
										{
											OFFSET	-0.000	-5.132	-0.000
											CHANNELS	3	Yrotation	Xrotation	Zrotation
											JOINT	LeftFinger3Medial
											{
												OFFSET	-0.000	-4.496	-0.000
												CHANNELS	3	Yrotation	Xrotation	Zrotation
												JOINT	LeftFinger3Distal
												{
													OFFSET	-0.000	-2.965	0.000
													CHANNELS	3	Yrotation	Xrotation	Zrotation
													End Site
													{
														OFFSET	-0.000	-2.868	-0.000
													}
												}
											}
										}
									}
									JOINT	LeftFinger4Metacarpal
									{
										OFFSET	-0.524	-2.624	0.099
										CHANNELS	3	Yrotation	Xrotation	Zrotation
										JOINT	LeftFinger4Proximal
										{
											OFFSET	-0.000	-4.891	0.000
											CHANNELS	3	Yrotation	Xrotation	Zrotation
											JOINT	LeftFinger4Medial
											{
												OFFSET	-0.000	-4.243	-0.000
												CHANNELS	3	Yrotation	Xrotation	Zrotation
												JOINT	LeftFinger4Distal
												{
													OFFSET	-0.000	-2.737	0.000
													CHANNELS	3	Yrotation	Xrotation	Zrotation
													End Site
													{
														OFFSET	-0.000	-2.664	-0.000
													}
												}
											}
										}
									}
									JOINT	LeftFinger5Metacarpal
									{
										OFFSET	-1.423	-2.380	0.098
										CHANNELS	3	Yrotation	Xrotation	Zrotation
										JOINT	LeftFinger5Proximal
										{
											OFFSET	-0.000	-4.585	-0.000
											CHANNELS	3	Yrotation	Xrotation	Zrotation
											JOINT	LeftFinger5Medial
											{
												OFFSET	-0.000	-3.598	0.000
												CHANNELS	3	Yrotation	Xrotation	Zrotation
												JOINT	LeftFinger5Distal
												{
													OFFSET	-0.000	-2.262	-0.000
													CHANNELS	3	Yrotation	Xrotation	Zrotation
													End Site
													{
														OFFSET	-0.000	-2.304	0.000
													}
												}
											}
										}
									}
								}
							}
						}
					}
					JOINT	Neck
					{
						OFFSET	0.000	-19.121	-0.000
						CHANNELS	3	Yrotation	Xrotation	Zrotation
						JOINT	Head
						{
							OFFSET	0.000	-9.862	0.000
							CHANNELS	3	Yrotation	Xrotation	Zrotation
							End Site
							{
								OFFSET	0.000	-14.898	0.000
							}
						}
					}
					JOINT	RightShoulder
					{
						OFFSET	6.642	-11.736	1.807
						CHANNELS	3	Yrotation	Xrotation	Zrotation
						JOINT	RightArm
						{
							OFFSET	-0.000	-12.849	-0.000
							CHANNELS	3	Yrotation	Xrotation	Zrotation
							JOINT	RightForeArm
							{
								OFFSET	-0.000	-24.625	0.000
								CHANNELS	3	Yrotation	Xrotation	Zrotation
								JOINT	RightHand
								{
									OFFSET	0.000	-27.116	0.000
									CHANNELS	3	Yrotation	Xrotation	Zrotation
									JOINT	RightFinger1Metacarpal
									{
										OFFSET	-2.664	-1.988	0.099
										CHANNELS	3	Yrotation	Xrotation	Zrotation
										JOINT	RightFinger1Proximal
										{
											OFFSET	-0.000	-3.769	0.000
											CHANNELS	3	Yrotation	Xrotation	Zrotation
											JOINT	RightFinger1Distal
											{
												OFFSET	-0.000	-2.861	-0.000
												CHANNELS	3	Yrotation	Xrotation	Zrotation
												End Site
												{
													OFFSET	-0.000	-3.269	-0.000
												}
											}
										}
									}
									JOINT	RightFinger2Metacarpal
									{
										OFFSET	-1.534	-2.531	0.099
										CHANNELS	3	Yrotation	Xrotation	Zrotation
										JOINT	RightFinger2Proximal
										{
											OFFSET	0.000	-5.243	-0.000
											CHANNELS	3	Yrotation	Xrotation	Zrotation
											JOINT	RightFinger2Medial
											{
												OFFSET	-0.000	-4.425	-0.000
												CHANNELS	3	Yrotation	Xrotation	Zrotation
												JOINT	RightFinger2Distal
												{
													OFFSET	0.000	-2.723	0.000
													CHANNELS	3	Yrotation	Xrotation	Zrotation
													End Site
													{
														OFFSET	0.000	-2.668	-0.000
													}
												}
											}
										}
									}
									JOINT	RightFinger3Metacarpal
									{
										OFFSET	-0.521	-2.647	0.098
										CHANNELS	3	Yrotation	Xrotation	Zrotation
										JOINT	RightFinger3Proximal
										{
											OFFSET	0.000	-5.132	-0.000
											CHANNELS	3	Yrotation	Xrotation	Zrotation
											JOINT	RightFinger3Medial
											{
												OFFSET	-0.000	-4.496	-0.000
												CHANNELS	3	Yrotation	Xrotation	Zrotation
												JOINT	RightFinger3Distal
												{
													OFFSET	-0.000	-2.965	-0.000
													CHANNELS	3	Yrotation	Xrotation	Zrotation
													End Site
													{
														OFFSET	0.000	-2.868	-0.000
													}
												}
											}
										}
									}
									JOINT	RightFinger4Metacarpal
									{
										OFFSET	0.524	-2.624	0.099
										CHANNELS	3	Yrotation	Xrotation	Zrotation
										JOINT	RightFinger4Proximal
										{
											OFFSET	0.000	-4.891	0.000
											CHANNELS	3	Yrotation	Xrotation	Zrotation
											JOINT	RightFinger4Medial
											{
												OFFSET	-0.000	-4.243	-0.000
												CHANNELS	3	Yrotation	Xrotation	Zrotation
												JOINT	RightFinger4Distal
												{
													OFFSET	0.000	-2.737	0.000
													CHANNELS	3	Yrotation	Xrotation	Zrotation
													End Site
													{
														OFFSET	0.000	-2.664	-0.000
													}
												}
											}
										}
									}
									JOINT	RightFinger5Metacarpal
									{
										OFFSET	1.423	-2.380	0.099
										CHANNELS	3	Yrotation	Xrotation	Zrotation
										JOINT	RightFinger5Proximal
										{
											OFFSET	0.000	-4.585	-0.000
											CHANNELS	3	Yrotation	Xrotation	Zrotation
											JOINT	RightFinger5Medial
											{
												OFFSET	0.000	-3.598	0.000
												CHANNELS	3	Yrotation	Xrotation	Zrotation
												JOINT	RightFinger5Distal
												{
													OFFSET	-0.000	-2.262	0.000
													CHANNELS	3	Yrotation	Xrotation	Zrotation
													End Site
													{
														OFFSET	0.000	-2.304	0.000
													}
												}
											}
										}
									}
								}
							}
						}
					}
				}
			}
		}
	}
}
MOTION
Frames:	8
Frame Time:	0.010
0.640	56.173	-2.661	-349.175	-2.833	-357.586	-78.396	358.777	-285.438	0.437	0.494	-97.185	-298.442	80.251	-191.820	-0.000	6.018	-0.000	-296.941	360.496	-77.455	1.360	-1.446	-266.337	-77.639	80.984	-171.241	0.000	3.999	-0.510	-359.323	5.679	-180.093	-0.679	354.307	-360.093	-0.679	354.304	-360.093	0.000	-0.000	-0.000	4.788	5.375	-87.097	-111.021	302.480	-284.135	-8.353	346.843	-309.865	-46.336	18.712	-3.460	-67.446	0.189	-331.116	5.472	314.390	-40.208	-0.000	327.636	-0.000	-0.000	0.000	-350.000	-356.791	336.772	-15.522	0.000	334.798	-0.000	-0.000	343.199	-0.000	-0.000	-0.000	0.000	-355.660	330.257	-14.709	0.211	328.528	1.279	-0.000	339.244	-0.000	-357.274	357.452	-10.128	2.421	335.738	-365.694	-0.200	332.867	-1.148	-0.000	341.592	-0.000	-354.070	354.881	-20.590	-3.353	336.915	-353.043	-0.013	338.431	-0.105	-0.000	345.655	-0.000	-359.113	3.346	0.929	-359.113	3.346	0.929	-347.966	4.256	-271.223	-239.483	303.248	-82.158	10.360	342.235	-51.350	-285.763	43.242	-326.479	-274.765	18.519	-28.634	-9.609	329.265	-348.902	-0.000	338.681	-0.000	0.000	-0.000	-10.000	-2.190	343.678	-346.352	-0.000	342.008	0.000	-0.000	348.005	-0.000	0.000	-0.000	-0.000	-1.742	336.087	-356.507	0.000	334.053	-0.000	-0.000	342.702	-0.000	-2.726	357.452	-349.872	-356.205	333.871	-8.938	0.000	335.012	-0.000	-0.000	343.341	-0.000	-5.930	354.881	-339.410	-357.277	340.033	-15.378	0.000	339.002	-0.000	-0.000	346.002	-0.000	
0.624	56.173	-2.657	-349.175	-2.831	-357.619	-78.417	358.827	-285.406	0.427	0.483	-97.201	-298.635	80.288	-192.039	-0.000	6.061	0.000	-296.942	360.475	-77.432	1.335	-1.420	-266.337	-77.684	80.971	-171.323	0.000	3.991	-0.510	-359.343	5.679	-180.095	-0.658	354.307	-360.095	-0.659	354.304	-360.095	0.000	-0.000	-0.000	4.775	5.388	-87.033	-110.990	302.516	-283.962	-8.260	346.768	-310.159	-46.829	18.204	-4.026	-67.445	0.207	-330.993	5.260	314.413	-39.690	-0.000	327.754	-0.000	-0.000	0.000	-350.000	-356.785	336.733	-15.523	-0.000	334.788	0.000	-0.000	343.192	-0.000	-0.000	-0.000	0.000	-355.663	330.151	-14.609	0.223	328.426	1.344	-0.000	339.186	-0.000	-357.274	357.452	-10.128	2.444	335.564	-365.598	-0.209	332.819	-1.173	-0.000	341.540	-0.000	-354.070	354.881	-20.590	-3.333	337.146	-353.121	-0.017	338.541	-0.141	-0.000	345.735	-0.000	-359.154	3.371	0.932	-359.154	3.371	0.932	-347.994	4.244	-271.210	-239.855	303.329	-82.129	10.038	342.144	-51.404	-287.688	40.574	-327.611	-274.840	18.683	-28.816	-9.356	329.777	-349.515	-0.000	339.088	-0.000	0.000	-0.000	-10.000	-2.075	344.497	-346.787	-0.017	343.209	-0.355	-0.000	348.648	-0.000	0.000	-0.000	-0.000	-1.430	337.692	-357.016	-0.003	335.555	0.424	-0.000	343.893	-0.000	-2.726	357.452	-349.872	-356.431	335.614	-9.074	-0.000	336.652	0.000	-0.000	344.434	-0.000	-5.930	354.881	-339.410	-357.254	339.875	-15.385	0.000	338.887	-0.000	-0.000	345.925	-0.000	
0.611	56.170	-2.645	-349.183	-2.831	-357.669	-78.420	358.885	-285.374	0.412	0.466	-97.230	-298.740	80.302	-192.168	0.000	6.093	-0.000	-296.955	360.421	-77.398	1.322	-1.406	-266.329	-77.768	80.951	-171.444	0.000	3.981	-0.512	-359.346	5.664	-180.082	-0.656	354.322	-360.082	-0.656	354.319	-360.082	0.000	-0.000	-0.000	4.812	5.352	-86.992	-110.965	302.582	-283.792	-8.105	346.826	-310.541	-47.072	17.877	-4.476	-67.443	0.223	-330.906	5.101	314.438	-39.315	-0.000	327.844	-0.000	-0.000	0.000	-350.000	-356.779	336.691	-15.525	-0.000	334.774	0.000	-0.000	343.183	-0.000	-0.000	-0.000	0.000	-355.661	330.051	-14.524	0.236	328.323	1.414	-0.000	339.127	-0.000	-357.274	357.452	-10.128	2.465	335.399	-365.511	-0.219	332.769	-1.209	-0.000	341.490	-0.000	-354.070	354.881	-20.590	-3.317	337.352	-353.186	-0.020	338.639	-0.171	-0.000	345.804	-0.000	-359.171	3.373	0.931	-359.171	3.373	0.931	-347.966	4.191	-271.224	-240.266	303.503	-82.138	9.612	341.856	-51.375	-289.150	38.220	-328.287	-274.895	18.812	-28.937	-9.167	330.176	-349.927	-0.000	339.398	-0.000	0.000	-0.000	-10.000	-1.963	344.958	-347.224	-0.023	343.906	-0.516	-0.000	349.061	-0.000	0.000	-0.000	-0.000	-1.230	338.739	-357.434	-0.004	336.607	0.611	-0.000	344.653	-0.000	-2.726	357.452	-349.872	-356.591	336.712	-9.310	0.000	337.654	-0.000	-0.000	345.103	-0.000	-5.930	354.881	-339.410	-357.228	339.696	-15.392	-0.000	338.726	0.000	-0.000	345.817	-0.000	
0.590	56.166	-2.633	-349.217	-2.817	-357.750	-78.392	358.980	-285.318	0.395	0.448	-97.267	-298.947	80.306	-192.391	-0.000	6.118	0.000	-296.921	360.348	-77.358	1.293	-1.376	-266.327	-77.813	80.939	-171.533	0.000	3.975	-0.513	-359.341	5.645	-180.061	-0.660	354.341	-360.061	-0.661	354.338	-360.061	0.000	-0.000	-0.000	4.855	5.320	-86.950	-110.942	302.677	-283.625	-7.915	346.868	-310.961	-47.371	17.460	-5.043	-67.440	0.243	-330.811	4.919	314.472	-38.904	-0.000	327.948	-0.000	-0.000	0.000	-350.000	-356.770	336.633	-15.528	0.000	334.740	0.000	-0.000	343.160	-0.000	-0.000	-0.000	0.000	-355.648	329.863	-14.411	0.255	328.122	1.517	-0.000	339.011	-0.000	-357.274	357.452	-10.128	2.502	335.119	-365.398	-0.236	332.659	-1.280	-0.000	341.396	-0.000	-354.070	354.881	-20.590	-3.292	337.641	-353.296	-0.024	338.769	-0.199	-0.000	345.889	-0.000	-359.194	3.379	0.936	-359.194	3.379	0.936	-347.930	4.145	-271.230	-240.629	303.772	-82.264	9.076	341.483	-51.190	-291.115	34.937	-328.828	-274.943	19.005	-28.919	-8.909	330.746	-349.953	-0.000	339.787	-0.000	0.000	-0.000	-10.000	-1.766	345.767	-347.676	-0.008	344.708	-0.216	-0.000	349.718	-0.000	0.000	-0.000	-0.000	-1.042	339.489	-357.969	-0.001	337.798	0.252	-0.000	345.301	-0.000	-2.726	357.452	-349.872	-356.800	337.874	-9.620	0.000	338.623	-0.000	-0.000	345.749	-0.000	-5.930	354.881	-339.410	-357.210	339.573	-15.397	0.000	338.646	-0.000	-0.000	345.764	-0.000	
0.567	56.164	-2.625	-349.258	-2.807	-357.827	-78.360	359.081	-285.271	0.384	0.435	-97.295	-299.163	80.303	-192.609	-0.000	6.135	0.000	-296.875	360.282	-77.315	1.264	-1.344	-266.333	-77.823	80.929	-171.577	-0.000	3.965	-0.515	-359.339	5.633	-180.042	-0.662	354.354	-360.042	-0.663	354.350	-360.042	0.000	-0.000	-0.000	4.895	5.313	-86.915	-110.931	302.803	-283.456	-7.684	346.903	-311.416	-47.521	17.253	-5.434	-67.438	0.259	-330.766	4.814	314.502	-38.695	-0.000	328.013	-0.000	-0.000	0.000	-350.000	-356.765	336.601	-15.530	-0.000	334.729	0.000	-0.000	343.153	-0.000	-0.000	-0.000	0.000	-355.635	329.694	-14.315	0.273	327.935	1.611	-0.000	338.902	-0.000	-357.274	357.452	-10.128	2.533	334.863	-365.306	-0.254	332.549	-1.358	-0.000	341.308	-0.000	-354.070	354.881	-20.590	-3.272	337.873	-353.381	-0.025	338.866	-0.211	-0.000	345.949	-0.000	-359.210	3.394	0.932	-359.210	3.394	0.932	-347.907	4.132	-271.242	-240.913	304.098	-82.522	8.479	341.164	-50.844	-292.579	32.409	-329.104	-274.978	19.169	-28.869	-8.694	331.226	-349.873	-0.000	340.106	-0.000	0.000	-0.000	-10.000	-1.599	346.391	-347.879	-0.000	345.403	0.000	-0.000	350.269	-0.000	0.000	-0.000	-0.000	-1.028	339.369	-358.259	-0.000	337.965	0.000	-0.000	345.310	-0.000	-2.726	357.452	-349.872	-356.926	338.205	-9.695	-0.000	338.789	0.000	-0.000	345.859	-0.000	-5.930	354.881	-339.410	-357.221	339.648	-15.394	-0.000	338.748	0.000	-0.000	345.832	-0.000	
0.558	56.164	-2.624	-349.271	-2.798	-357.828	-78.362	359.104	-285.257	0.385	0.436	-97.297	-299.330	80.311	-192.776	-0.000	6.148	-0.000	-296.883	360.263	-77.321	1.256	-1.336	-266.331	-77.847	80.934	-171.636	0.000	3.961	-0.517	-359.353	5.629	-180.047	-0.649	354.357	-360.047	-0.649	354.354	-360.047	0.000	-0.000	-0.000	4.932	5.327	-86.892	-110.927	302.958	-283.264	-7.474	346.685	-311.854	-47.831	17.041	-5.881	-67.434	0.282	-330.728	4.693	314.553	-38.501	-0.000	328.095	-0.000	-0.000	0.000	-350.000	-356.765	336.598	-15.530	0.000	334.757	-0.000	-0.000	343.171	-0.000	-0.000	-0.000	0.000	-355.636	329.484	-14.130	0.301	327.686	1.757	-0.000	338.758	-0.000	-357.274	357.452	-10.128	2.591	334.502	-365.205	-0.282	332.392	-1.501	-0.000	341.187	-0.000	-354.070	354.881	-20.590	-3.251	338.196	-353.507	-0.025	339.007	-0.214	-0.000	346.034	-0.000	-359.235	3.411	0.954	-359.235	3.411	0.954	-347.895	4.147	-271.253	-241.112	304.480	-82.885	7.860	340.999	-50.383	-294.526	29.238	-329.150	-275.030	19.398	-28.822	-8.393	331.897	-349.825	-0.000	340.559	-0.000	0.000	-0.000	-10.000	-1.406	347.374	-347.670	0.000	346.700	-0.000	-0.000	351.133	-0.000	0.000	-0.000	-0.000	-1.077	337.858	-358.581	0.000	336.702	0.000	-0.000	344.468	-0.000	-2.726	357.452	-349.872	-357.090	337.810	-9.541	-0.000	338.089	0.000	-0.000	345.393	-0.000	-5.930	354.881	-339.410	-357.262	339.929	-15.383	-0.000	339.066	0.000	-0.000	346.044	-0.000	
0.547	56.166	-2.624	-349.298	-2.790	-357.826	-78.336	359.115	-285.251	0.381	0.432	-97.293	-299.427	80.309	-192.862	-0.000	6.149	-0.000	-296.874	360.248	-77.328	1.247	-1.326	-266.332	-77.850	80.942	-171.667	0.000	3.957	-0.519	-359.364	5.628	-180.056	-0.638	354.359	-360.056	-0.638	354.356	-360.056	0.000	-0.000	-0.000	4.972	5.346	-86.871	-110.926	303.119	-283.064	-7.215	346.726	-312.382	-47.831	16.948	-6.164	-67.431	0.302	-330.712	4.612	314.598	-38.400	-0.000	328.154	-0.000	-0.000	0.000	-350.000	-356.767	336.616	-15.529	0.000	334.799	-0.000	-0.000	343.199	-0.000	-0.000	-0.000	0.000	-355.631	329.355	-14.025	0.320	327.536	1.855	-0.000	338.668	-0.000	-357.274	357.452	-10.128	2.622	334.252	-365.125	-0.303	332.278	-1.613	-0.000	341.105	-0.000	-354.070	354.881	-20.590	-3.235	338.422	-353.577	-0.024	339.104	-0.203	-0.000	346.091	-0.000	-359.255	3.428	0.986	-359.255	3.428	0.986	-347.906	4.175	-271.275	-241.250	304.899	-83.310	7.164	341.080	-50.150	-295.979	26.633	-329.204	-275.067	19.570	-28.780	-8.170	332.396	-349.765	-0.000	340.895	-0.000	0.000	-0.000	-10.000	-1.294	348.226	-347.500	-0.000	347.776	0.000	-0.000	351.850	-0.000	0.000	-0.000	-0.000	-1.257	335.834	-358.335	-0.000	334.776	-0.000	-0.000	343.184	-0.000	-2.726	357.452	-349.872	-357.178	336.721	-8.886	-0.000	336.859	0.000	-0.000	344.573	-0.000	-5.930	354.881	-339.410	-357.291	340.131	-15.375	-0.000	339.306	0.000	-0.000	346.204	-0.000	
0.536	56.168	-2.624	-349.332	-2.780	-357.823	-78.297	359.117	-285.247	0.376	0.426	-97.288	-299.496	80.302	-192.926	-0.000	6.146	-0.000	-296.871	360.214	-77.336	1.248	-1.327	-266.337	-77.941	80.951	-171.785	0.000	3.950	-0.521	-359.374	5.624	-180.065	-0.627	354.362	-360.065	-0.628	354.359	-360.065	0.000	-0.000	-0.000	5.004	5.356	-86.861	-110.969	303.330	-282.902	-6.931	346.772	-312.705	-47.842	16.770	-6.400	-67.427	0.322	-330.702	4.537	314.643	-38.319	-0.000	328.211	-0.000	-0.000	0.000	-350.000	-356.772	336.649	-15.528	-0.000	334.849	0.000	-0.000	343.233	-0.000	-0.000	-0.000	0.000	-355.632	329.258	-13.936	0.335	327.431	1.923	-0.000	338.599	-0.000	-357.274	357.452	-10.128	2.649	334.029	-365.054	-0.320	332.164	-1.711	-0.000	341.033	-0.000	-354.070	354.881	-20.590	-3.219	338.611	-353.632	-0.021	339.182	-0.179	-0.000	346.136	-0.000	-359.284	3.445	1.035	-359.284	3.445	1.035	-347.939	4.209	-271.308	-241.340	305.360	-83.761	6.474	341.189	-49.581	-297.423	24.225	-328.717	-275.113	19.795	-28.706	-7.878	333.047	-349.628	-0.000	341.330	-0.000	0.000	-0.000	-10.000	-1.163	349.358	-347.559	-0.000	348.985	0.000	-0.000	352.657	-0.000	0.000	-0.000	-0.000	-1.689	332.248	-357.326	0.000	331.399	-0.000	-0.000	340.933	-0.000	-2.726	357.452	-349.872	-357.253	334.352	-7.454	0.000	334.412	-0.000	-0.000	342.941	-0.000	-5.930	354.881	-339.410	-357.349	340.525	-15.359	-0.000	339.738	-0.000	-0.000	346.492	-0.000	
